<svg width="28" height="28" fill="none" xmlns="http://www.w3.org/2000/svg"><g clip-path="url(#clip0_23_305)"><circle cx="14" cy="14" r="14" fill="#FFEFD9"/><path d="M14 2c1.068 0 2.102.14 3.088.402.096.025.191.055.287.082.07.02.14.038.208.06l.01.003a11.92 11.92 0 0 1 2.394 1.056l.03.016C23.593 5.697 26 9.566 26 14c0 .28-.231.5-.51.5h-7.693l7.429 1.99a.51.51 0 0 1 .366.616.502.502 0 0 1-.621.351l-7.429-1.99 6.657 3.844c.242.14.332.446.192.688a.504.504 0 0 1-.692.177l-6.657-3.843 5.435 5.436a.505.505 0 0 1 .008.713.505.505 0 0 1-.715-.006l-5.434-5.435 3.843 6.656a.504.504 0 0 1-.177.692.505.505 0 0 1-.688-.192l-3.844-6.655 1.99 7.429c.072.27-.08.549-.35.62a.508.508 0 0 1-.616-.365l-1.99-7.424v7.681A.51.51 0 0 1 14 26a.501.501 0 0 1-.495-.507v-7.687l-1.99 7.421a.508.508 0 0 1-.617.366.5.5 0 0 1-.35-.62l1.991-7.43-3.845 6.66a.504.504 0 0 1-.688.19.505.505 0 0 1-.177-.69l3.843-6.656-5.437 5.435a.504.504 0 0 1-.714.008.505.505 0 0 1 .007-.715l5.435-5.434-6.657 3.844a.506.506 0 0 1-.693-.177.504.504 0 0 1 .192-.689l6.656-3.843-7.43 1.99a.501.501 0 0 1-.62-.349.508.508 0 0 1 .363-.616l7.468-2.001H2.511C2.23 14.5 2 14.28 2 14c0-.9.102-1.777.29-2.62l.016-.067c.03-.128.058-.256.091-.383a11.922 11.922 0 0 1 .97-2.492l.009-.017c.073-.14.15-.277.228-.413l.015-.026c.076-.13.153-.258.234-.385l.015-.025a12.058 12.058 0 0 1 3.707-3.706l.027-.016c.123-.078.248-.154.375-.228l.06-.034c.124-.071.249-.141.376-.208l.027-.015c.629-.329 1.288-.606 1.976-.821.003 0 .005-.002.008-.003l.102-.03c.134-.04.269-.078.405-.114.125-.033.251-.061.378-.09l.075-.018C12.226 2.102 13.1 2 14 2zm0 3a.5.5 0 0 0-.5.5v6.565A1.999 1.999 0 1 0 16 14c0-.932-.638-1.712-1.5-1.935V5.5A.5.5 0 0 0 14 5z" fill="#382D1C"/></g><defs><clipPath id="clip0_23_305"><path fill="#fff" d="M0 0H28V28H0z"/></clipPath></defs></svg>