<svg width="36" height="36" viewBox="0 0 36 36" fill="none" xmlns="http://www.w3.org/2000/svg">
<rect width="36" height="36" rx="8" fill="black"/>
<path d="M28 2C31.3137 2 34 4.68629 34 8V28C34 31.3137 31.3137 34 28 34H8L7.69141 33.9922C4.52111 33.8316 2 31.2102 2 28V8C2 4.68629 4.68629 2 8 2H28ZM8 4C5.79086 4 4 5.79086 4 8V28C4 30.2091 5.79086 32 8 32H28C30.2091 32 32 30.2091 32 28V8C32 5.79086 30.2091 4 28 4H8ZM30 20H6V11H30V20ZM13.5 13C12.1193 13 11 14.1193 11 15.5C11 16.8807 12.1193 18 13.5 18C14.8807 18 16 16.8807 16 15.5C16 14.1193 14.8807 13 13.5 13ZM22.5 13C21.1193 13 20 14.1193 20 15.5C20 16.8807 21.1193 18 22.5 18C23.8807 18 25 16.8807 25 15.5C25 14.1193 23.8807 13 22.5 13Z" fill="white"/>
</svg>
