<svg width="28" height="28" viewBox="0 0 28 28" fill="none" xmlns="http://www.w3.org/2000/svg">
<circle cx="14" cy="14" r="14" fill="#FFEFD9"/>
<path d="M14 2C15.0677 2 16.1025 2.14067 17.0879 2.40234C17.1844 2.42734 17.2795 2.45688 17.375 2.48438C17.4443 2.50465 17.5142 2.52246 17.583 2.54395C17.5863 2.54496 17.5895 2.54586 17.5928 2.54688C18.4357 2.81097 19.2358 3.16884 19.9873 3.60254C19.997 3.60816 20.0069 3.61349 20.0166 3.61914C23.5933 5.6966 26 9.5659 26 14C26 14.2794 25.7687 14.4999 25.4893 14.5H17.7969L25.2256 16.4893C25.4956 16.5616 25.6623 16.836 25.5918 17.1064C25.521 17.3771 25.241 17.5293 24.9707 17.457L17.542 15.4668L24.1992 19.3105C24.4414 19.4504 24.5308 19.7571 24.3906 19.999C24.2506 20.2407 23.9411 20.3154 23.6992 20.1758L17.042 16.333L22.4775 21.7686C22.6749 21.966 22.6825 22.2848 22.4854 22.4824C22.2877 22.68 21.9682 22.6731 21.7705 22.4756L16.3359 17.041L20.1787 23.6973C20.3183 23.9391 20.2436 24.2487 20.002 24.3887C19.76 24.5287 19.4533 24.4394 19.3135 24.1973L15.4697 17.542L17.46 24.9707C17.532 25.2404 17.3794 25.52 17.1094 25.5908C16.8395 25.6613 16.5664 25.495 16.4941 25.2256L14.5049 17.8018V25.4834C14.5048 25.7656 14.2822 26 14 26C13.7233 26 13.505 25.7698 13.5049 25.4932V17.8057L11.5146 25.2275C11.4423 25.4972 11.1686 25.6632 10.8984 25.5928C10.6281 25.522 10.4765 25.2426 10.5488 24.9727L12.5391 17.5439L8.69434 24.2021C8.55456 24.4442 8.2477 24.5337 8.00586 24.3936C7.76434 24.2534 7.68958 23.944 7.8291 23.7021L11.6719 17.0469L6.23535 22.4824C6.03789 22.6799 5.71898 22.6876 5.52148 22.4902C5.32393 22.2926 5.33093 21.9731 5.52832 21.7754L10.9629 16.3408L4.30566 20.1846C4.06398 20.3241 3.75358 20.249 3.61328 20.0078C3.47288 19.7661 3.56265 19.4592 3.80469 19.3193L10.4609 15.4756L3.03027 17.4668C2.76069 17.5389 2.48139 17.387 2.41016 17.1172C2.33903 16.8472 2.50485 16.5735 2.77441 16.501L10.2422 14.5H2.51074C2.23133 14.4999 2 14.2794 2 14C2 13.0998 2.10212 12.2234 2.29004 11.3799C2.29499 11.3577 2.30063 11.3356 2.30566 11.3135C2.33507 11.1849 2.36396 11.0566 2.39746 10.9297C2.44242 10.7555 2.49148 10.5829 2.54492 10.4121C2.75997 9.72481 3.038 9.06546 3.36719 8.4375C3.37009 8.43195 3.37306 8.42644 3.37598 8.4209C3.44936 8.28144 3.52584 8.14396 3.60449 8.00781C3.60938 7.99935 3.61423 7.99087 3.61914 7.98242C3.69472 7.85231 3.77226 7.72363 3.85254 7.59668C3.8577 7.58851 3.86298 7.58042 3.86816 7.57227C4.81625 6.08094 6.08358 4.81387 7.5752 3.86621C7.58396 3.86064 7.59278 3.85516 7.60156 3.84961C7.72511 3.77157 7.85003 3.69567 7.97656 3.62207C7.99634 3.61054 8.01628 3.59931 8.03613 3.58789C8.16051 3.5165 8.28596 3.4469 8.41309 3.37988C8.42223 3.37506 8.43127 3.37003 8.44043 3.36523C9.06863 3.03615 9.72847 2.75882 10.416 2.54395C10.4187 2.54312 10.4212 2.54184 10.4238 2.54102C10.4577 2.53044 10.4923 2.522 10.5264 2.51172C10.6603 2.47159 10.7948 2.43259 10.9307 2.39746C11.0557 2.36447 11.182 2.33566 11.3086 2.30664C11.3337 2.30093 11.3587 2.29465 11.3838 2.28906C12.2261 2.10171 13.1012 2 14 2Z" fill="#382D1C"/>
</svg>
